<?xml version="1.0" encoding="utf-8" ?><svg xmlns="http://www.w3.org/2000/svg" xmlns:xlink="http://www.w3.org/1999/xlink" width="64" height="64"><path fill="#173B2E" transform="matrix(1 0 0 1 10.6667 53.8667)" d="M0 -0.875L42.6667 -0.875Q43.0335 -0.8856 43.2854 -0.6187Q43.5522 -0.3668 43.5417 0Q43.5522 0.3668 43.2854 0.6187Q43.0335 0.8856 42.6667 0.875L0 0.875Q-0.3668 0.8856 -0.6187 0.6187Q-0.8856 0.3668 -0.875 0Q-0.8856 -0.3668 -0.6187 -0.6187Q-0.3668 -0.8856 0 -0.875Z" fill-rule="evenodd"/><path fill="#173B2E" transform="matrix(1 0 0 1 16 30.6667)" d="M1.2 -0.875L7.8667 -0.875Q8.7262 -0.875 9.3339 -0.2672Q9.9417 0.3405 9.9417 1.2L9.9417 16.6667Q9.9417 17.5262 9.3339 18.1339Q8.7262 18.7417 7.8667 18.7417L1.2 18.7417Q0.3405 18.7417 -0.2672 18.1339Q-0.875 17.5262 -0.875 16.6667L-0.875 1.2Q-0.875 -0.875 1.2 -0.875ZM1.2 0.875Q0.875 0.875 0.875 1.2L0.875 16.6667Q0.875 16.9917 1.2 16.9917L7.8667 16.9917Q8.1917 16.9917 8.1917 16.6667L8.1917 1.2Q8.1917 0.875 7.8667 0.875L1.2 0.875Z"/><path fill="#173B2E" transform="matrix(1 0 0 1 30.1333 20)" d="M1.2 -0.875L7.8667 -0.875Q8.7262 -0.875 9.3339 -0.2672Q9.9417 0.3405 9.9417 1.2L9.9417 27.3333Q9.9417 29.4083 7.8667 29.4083L1.2 29.4083Q-0.875 29.4083 -0.875 27.3333L-0.875 1.2Q-0.875 -0.875 1.2 -0.875ZM1.2 0.875Q0.875 0.875 0.875 1.2L0.875 27.3333Q0.875 27.6583 1.2 27.6583L7.8667 27.6583Q8.1917 27.6583 8.1917 27.3333L8.1917 1.2Q8.1917 0.875 7.8667 0.875L1.2 0.875Z"/><path fill="#173B2E" transform="matrix(1 0 0 1 44.2667 10.6667)" d="M1.2 -0.875L7.8667 -0.875Q8.7262 -0.875 9.3339 -0.2672Q9.9417 0.3405 9.9417 1.2L9.9417 36.6667Q9.9417 37.5262 9.3339 38.1339Q8.7262 38.7417 7.8667 38.7417L1.2 38.7417Q0.3405 38.7417 -0.2672 38.1339Q-0.875 37.5262 -0.875 36.6667L-0.875 1.2Q-0.875 -0.875 1.2 -0.875ZM1.2 0.875Q0.875 0.875 0.875 1.2L0.875 36.6667Q0.875 36.9917 1.2 36.9917L7.8667 36.9917Q8.1917 36.9917 8.1917 36.6667L8.1917 1.2Q8.1917 0.875 7.8667 0.875L1.2 0.875Z"/></svg>