<?xml version="1.0" encoding="utf-8" ?><svg xmlns="http://www.w3.org/2000/svg" xmlns:xlink="http://www.w3.org/1999/xlink" width="64" height="64"><path fill="#173B2E" transform="matrix(1 0 0 1 8.53333 6.60498)" d="M10.1328 29.4627Q5.5733 29.4627 2.3492 26.2392Q-0.875 23.0157 -0.875 18.4569Q-0.875 13.8982 2.3492 10.6747Q5.3732 7.6512 9.5721 7.4636Q11.564 3.4174 15.5102 1.1377Q19.6985 -1.2818 24.5116 -0.8005Q29.3248 -0.3193 32.9509 2.8815Q36.3359 5.8694 37.497 10.1771Q41.0743 10.6084 43.5171 13.3669Q46.1775 16.3709 45.9347 20.3759Q45.6919 24.3809 42.6882 27.0417Q39.6946 29.6935 35.7057 29.4627L10.1328 29.4627ZM35.7315 27.7127Q35.7447 27.7127 35.7578 27.7131Q35.771 27.7135 35.7841 27.7143Q39.0666 27.912 41.5278 25.7317Q43.989 23.5515 44.1879 20.27Q44.3868 16.9885 42.207 14.5271Q40.0272 12.0656 36.7449 11.8656Q36.4521 11.8525 36.2318 11.6593Q36.0054 11.4732 35.945 11.1865Q34.9961 7.021 31.7928 4.1935Q28.5895 1.3659 24.3375 0.9408Q20.0855 0.5157 16.3856 2.6531Q12.6856 4.7904 10.9306 8.6857Q10.8269 8.923 10.6077 9.0611Q10.3918 9.2042 10.1328 9.2012Q6.298 9.2012 3.5865 11.9122Q0.875 14.6231 0.875 18.4569Q0.875 22.2907 3.5865 25.0017Q6.298 27.7127 10.1328 27.7127L35.7315 27.7127Z" fill-rule="evenodd"/><path fill="#173B2E" transform="matrix(1 0 0 1 32 41.6)" d="M0.875 0L0.875 13.0667Q0.8856 13.4335 0.6187 13.6854Q0.3668 13.9522 0 13.9417Q-0.3668 13.9522 -0.6187 13.6854Q-0.8856 13.4335 -0.875 13.0667L-0.875 0Q-0.8856 -0.3668 -0.6187 -0.6187Q-0.3668 -0.8856 0 -0.875Q0.3668 -0.8856 0.6187 -0.6187Q0.8856 -0.3668 0.875 0Z" fill-rule="evenodd"/><path fill="#173B2E" transform="matrix(1 0 0 1 25.6 48.2667)" d="M0.6187 -0.6187L6.4 5.1626L12.1813 -0.6187Q12.4332 -0.8856 12.8 -0.875Q13.1668 -0.8856 13.4187 -0.6187Q13.6856 -0.3668 13.675 0Q13.6856 0.3668 13.4187 0.6187L7.0187 7.0187Q6.7668 7.2856 6.4 7.275Q6.0332 7.2856 5.7813 7.0187L-0.6187 0.6187Q-0.8856 0.3668 -0.875 0Q-0.8856 -0.3668 -0.6187 -0.6187Q-0.3668 -0.8856 0 -0.875Q0.3668 -0.8856 0.6187 -0.6187Z" fill-rule="evenodd"/></svg>