<?xml version="1.0" encoding="utf-8" ?><svg xmlns="http://www.w3.org/2000/svg" xmlns:xlink="http://www.w3.org/1999/xlink" width="64" height="64"><path fill="#173B2E" transform="matrix(1 0 0 1 14.6667 9.33333)" d="M4.5333 -0.875L21.6 -0.875Q21.7682 -0.8756 21.9243 -0.8127Q22.0807 -0.7509 22.2024 -0.6346L37.9357 14.2987Q38.0669 14.4222 38.1373 14.588Q38.2091 14.7532 38.2083 14.9333L38.2083 40.8Q38.2083 43.0402 36.6243 44.6243Q35.0402 46.2083 32.8 46.2083L4.5333 46.2083Q2.2931 46.2083 0.7091 44.6243Q-0.875 43.0402 -0.875 40.8L-0.875 4.5333Q-0.875 2.2931 0.7091 0.7091Q2.2931 -0.875 4.5333 -0.875ZM4.5333 0.875Q3.018 0.875 1.9465 1.9465Q0.875 3.018 0.875 4.5333L0.875 40.8Q0.875 42.3153 1.9465 43.3868Q3.018 44.4583 4.5333 44.4583L32.8 44.4583Q34.3153 44.4583 35.3868 43.3868Q36.4583 42.3153 36.4583 40.8L36.4583 15.3092L21.2509 0.875L4.5333 0.875Z" fill-rule="evenodd"/><path fill="#173B2E" transform="matrix(1 0 0 1 36.2667 9.33333)" d="M0.875 0L0.875 14.0583L15.7333 14.0583Q16.1001 14.0478 16.3521 14.3146Q16.6189 14.5665 16.6083 14.9333Q16.6189 15.3001 16.3521 15.5521Q16.1001 15.8189 15.7333 15.8083L0 15.8083Q-0.3668 15.8189 -0.6187 15.5521Q-0.8856 15.3001 -0.875 14.9333L-0.875 0Q-0.8856 -0.3668 -0.6187 -0.6187Q-0.3668 -0.8856 0 -0.875Q0.3668 -0.8856 0.6187 -0.6187Q0.8856 -0.3668 0.875 0Z" fill-rule="evenodd"/><path fill="#173B2E" transform="matrix(1 0 0 1 32 31.4667)" d="M0.875 0L0.875 14.4Q0.8856 14.7668 0.6187 15.0187Q0.3668 15.2856 0 15.275Q-0.3668 15.2856 -0.6187 15.0187Q-0.8856 14.7668 -0.875 14.4L-0.875 0Q-0.8856 -0.3668 -0.6187 -0.6187Q-0.3668 -0.8856 0 -0.875Q0.3668 -0.8856 0.6187 -0.6187Q0.8856 -0.3668 0.875 0Z" fill-rule="evenodd"/><path fill="#173B2E" transform="matrix(1 0 0 1 25.6 38.9333)" d="M0.6187 -0.6187L6.4 5.1626L12.1813 -0.6187Q12.4332 -0.8856 12.8 -0.875Q13.1668 -0.8856 13.4187 -0.6187Q13.6856 -0.3668 13.675 0Q13.6856 0.3668 13.4187 0.6187L7.0187 7.0187Q6.7668 7.2856 6.4 7.275Q6.0332 7.2856 5.7813 7.0187L-0.6187 0.6187Q-0.8856 0.3668 -0.875 0Q-0.8856 -0.3668 -0.6187 -0.6187Q-0.3668 -0.8856 0 -0.875Q0.3668 -0.8856 0.6187 -0.6187Z" fill-rule="evenodd"/></svg>