<?xml version="1.0" encoding="utf-8" ?><svg xmlns="http://www.w3.org/2000/svg" xmlns:xlink="http://www.w3.org/1999/xlink" width="64" height="64"><path fill="#173B2E" transform="matrix(1 0 0 1 10.6667 22.6667)" d="M0 -0.875L34.6667 -0.875Q35.0335 -0.8856 35.2854 -0.6187Q35.5522 -0.3668 35.5417 0Q35.5522 0.3668 35.2854 0.6187Q35.0335 0.8856 34.6667 0.875L0 0.875Q-0.3668 0.8856 -0.6187 0.6187Q-0.8856 0.3668 -0.875 0Q-0.8856 -0.3668 -0.6187 -0.6187Q-0.3668 -0.8856 0 -0.875Z" fill-rule="evenodd"/><path fill="#173B2E" transform="matrix(1 0 0 1 37.0667 14.4)" d="M0.6187 -0.6187L8.8854 7.6479Q9.1522 7.8999 9.1417 8.2667Q9.1522 8.6335 8.8854 8.8854L0.6187 17.1521Q0.3668 17.4189 0 17.4083Q-0.3668 17.4189 -0.6187 17.1521Q-0.8856 16.9001 -0.875 16.5333Q-0.8856 16.1665 -0.6187 15.9146L7.0292 8.2667L-0.6187 0.6187Q-0.8856 0.3668 -0.875 0Q-0.8856 -0.3668 -0.6187 -0.6187Q-0.3668 -0.8856 0 -0.875Q0.3668 -0.8856 0.6187 -0.6187Z" fill-rule="evenodd"/><path fill="#173B2E" transform="matrix(1 0 0 1 18.6667 41.3333)" d="M34.6667 0.875L0 0.875Q-0.3668 0.8856 -0.6187 0.6187Q-0.8856 0.3668 -0.875 0Q-0.8856 -0.3668 -0.6187 -0.6187Q-0.3668 -0.8856 0 -0.875L34.6667 -0.875Q35.0335 -0.8856 35.2854 -0.6187Q35.5522 -0.3668 35.5417 0Q35.5522 0.3668 35.2854 0.6187Q35.0335 0.8856 34.6667 0.875Z" fill-rule="evenodd"/><path fill="#173B2E" transform="matrix(1 0 0 1 18.6667 33.0667)" d="M8.8854 0.6187L1.2374 8.2667L8.8854 15.9146Q9.1522 16.1665 9.1417 16.5333Q9.1522 16.9001 8.8854 17.1521Q8.6335 17.4189 8.2667 17.4083Q7.8999 17.4189 7.648 17.1521L-0.6187 8.8854Q-0.8856 8.6335 -0.875 8.2667Q-0.8856 7.8999 -0.6187 7.6479L7.648 -0.6187Q7.8999 -0.8856 8.2667 -0.875Q8.6335 -0.8856 8.8854 -0.6187Q9.1522 -0.3668 9.1417 0Q9.1522 0.3668 8.8854 0.6187Z" fill-rule="evenodd"/></svg>