<?xml version="1.0" encoding="utf-8" ?><svg xmlns="http://www.w3.org/2000/svg" xmlns:xlink="http://www.w3.org/1999/xlink" width="64" height="64"><path fill="#173B2E" transform="matrix(1 0 0 1 8.10457 8)" d="M40.4595 42.5435Q33.0727 49.0634 23.225 48.7567Q13.3773 48.4501 6.4105 41.4833Q-0.5563 34.5165 -0.863 24.6687Q-1.1696 14.821 5.3503 7.4342Q11.8701 0.0475 21.6798 -0.8712Q21.8421 -0.8869 21.999 -0.8421Q22.1561 -0.7983 22.2863 -0.7Q22.5861 -0.4884 22.6276 -0.1237Q22.6899 0.2379 22.4613 0.525Q18.4772 5.8372 18.9479 12.4608Q19.4186 19.0844 24.114 23.7798Q28.8094 28.4752 35.433 28.9459Q42.0566 29.4166 47.3688 25.4324Q47.499 25.3341 47.6561 25.2903Q47.813 25.2455 47.9754 25.2612Q48.3416 25.2849 48.5675 25.5741Q48.8097 25.8498 48.765 26.214Q47.8463 36.0236 40.4595 42.5435ZM39.3015 41.2315Q45.4399 35.8134 46.7737 27.9515Q41.5757 31.1368 35.3089 30.6915Q28.0338 30.1745 22.8766 25.0172Q17.7193 19.86 17.2023 12.5849Q16.7569 6.3181 19.9423 1.1201Q12.0804 2.4538 6.6623 8.5923Q0.6011 15.4593 0.8862 24.6143Q1.1713 33.7692 7.6479 40.2459Q14.1246 46.7225 23.2795 47.0076Q32.4344 47.2926 39.3015 41.2315Z" fill-rule="evenodd"/></svg>